<?xml version="1.0" standalone="no"?>
<!DOCTYPE svg PUBLIC "-//W3C//DTD SVG 20010904//EN"
 "http://www.w3.org/TR/2001/REC-SVG-20010904/DTD/svg10.dtd">
<svg version="1.0" xmlns="http://www.w3.org/2000/svg"
 width="500.000000pt" height="500.000000pt" viewBox="0 0 500.000000 500.000000"
 preserveAspectRatio="xMidYMid meet">
<metadata>
Created by potrace 1.14, written by Peter Selinger 2001-2017
</metadata>
<g transform="translate(0.000000,500.000000) scale(0.100000,-0.100000)"
fill="#000000" stroke="none">
<path d="M0 2500 l0 -2500 2500 0 2500 0 0 2500 0 2500 -2500 0 -2500 0 0
-2500z m1805 2264 c217 -43 371 -201 410 -419 58 -324 -80 -584 -357 -675 -87
-28 -266 -43 -365 -29 -154 21 -276 74 -362 158 -63 62 -95 114 -128 208 -22
66 -26 96 -27 193 -1 182 40 301 139 409 138 148 414 210 690 155z m1787 -3
c109 -28 174 -65 244 -136 94 -95 139 -207 150 -375 18 -242 -91 -453 -280
-545 -113 -55 -181 -69 -346 -69 -122 -1 -158 3 -225 22 -207 60 -340 190
-390 380 -10 40 -16 104 -16 172 0 181 41 297 144 406 86 92 195 140 382 168
67 10 262 -3 337 -23z m-322 -1377 l0 -40 -85 -12 c-130 -17 -184 -52 -212
-136 -16 -47 -18 -152 -21 -1271 -3 -1294 -1 -1384 41 -1458 34 -62 63 -77
176 -96 l101 -16 0 -40 0 -40 -770 0 -770 0 0 41 0 41 55 7 c158 18 212 49
242 139 16 48 18 144 21 1272 2 834 0 1250 -8 1315 -20 173 -61 219 -222 241
l-88 13 0 40 0 41 770 0 770 0 0 -41z"/>
</g>
</svg>
